<svg id="Group_1794" data-name="Group 1794" xmlns="http://www.w3.org/2000/svg" xmlns:xlink="http://www.w3.org/1999/xlink" width="198.629" height="198.629" viewBox="0 0 198.629 198.629">
  <defs>
    <clipPath id="clip-path">
      <rect id="Rectangle_927" data-name="Rectangle 927" width="198.629" height="198.629" fill="#fff"/>
    </clipPath>
  </defs>
  <g id="Group_1793" data-name="Group 1793" clip-path="url(#clip-path)">
    <path id="Path_2393" data-name="Path 2393" d="M172.12,176.959c14.617,0,26.509-12.557,26.509-27.993a28.3,28.3,0,0,0-12.538-23.788c-2.373-13.056-13.256-22.679-26.025-22.679s-23.651,9.623-26.025,22.679A28.3,28.3,0,0,0,121.5,148.966c0,15.436,11.892,27.993,26.509,27.993h8.234V190.99H96.819c-2.18-1.6-8.65-7.557-8.65-22.182V136.189h.115A31.189,31.189,0,0,0,119.1,110.453a31.311,31.311,0,0,0,10.375-50.99A31.024,31.024,0,0,0,133.7,43.742,31.312,31.312,0,0,0,95.469,13.208a32.6,32.6,0,0,0-52.41,0A31.317,31.317,0,0,0,9.052,59.463a31.311,31.311,0,0,0,10.377,50.99,31.189,31.189,0,0,0,30.815,25.736h.116v32.619c0,14.629-6.473,20.589-8.651,22.182H3.82a3.819,3.819,0,1,0,0,7.639H194.809a3.819,3.819,0,1,0,0-7.639H163.886V176.959Zm-24.107-7.639c-10.4,0-18.87-9.131-18.87-20.354a20.533,20.533,0,0,1,10.264-18.109,3.822,3.822,0,0,0,1.942-2.9c1.171-10.156,9.217-17.815,18.717-17.815s17.547,7.659,18.718,17.815a3.82,3.82,0,0,0,1.942,2.9,20.532,20.532,0,0,1,10.263,18.109c0,11.223-8.465,20.354-18.869,20.354h-8.234v-9.569L175.633,148a3.82,3.82,0,1,0-5.4-5.4l-6.345,6.345v-16.51a3.82,3.82,0,1,0-7.639,0v16.51L149.9,142.6a3.819,3.819,0,1,0-5.4,5.4l11.747,11.747v9.569ZM26.695,107.271a3.821,3.821,0,0,0-2.633-3.255,23.668,23.668,0,0,1-7.62-40.948,3.819,3.819,0,0,0,.667-5.246A23.67,23.67,0,0,1,43.5,21.248a3.818,3.818,0,0,0,4.449-1.639,24.957,24.957,0,0,1,42.622,0,3.822,3.822,0,0,0,4.448,1.64,23.67,23.67,0,0,1,26.4,36.574,3.819,3.819,0,0,0,.667,5.245,23.669,23.669,0,0,1-7.62,40.948,3.821,3.821,0,0,0-2.633,3.255,23.578,23.578,0,0,1-23.55,21.278h-15.2v-9.955l25.26-25.259a3.82,3.82,0,0,0-5.4-5.4L73.084,107.79V82.866L91.251,64.7a3.819,3.819,0,1,0-5.4-5.4L73.084,72.062V48.016a3.82,3.82,0,1,0-7.639,0V72.062L52.679,59.3a3.82,3.82,0,0,0-5.4,5.4L65.445,82.866V107.79L45.587,87.932a3.82,3.82,0,1,0-5.4,5.4l25.26,25.259v9.955h-15.2a23.578,23.578,0,0,1-23.549-21.278M58,168.808V136.189H80.529v32.619c0,10.51,2.909,17.6,6.016,22.182H51.984C55.091,186.408,58,179.318,58,168.808" fill="#fff"/>
    <path id="Path_2394" data-name="Path 2394" d="M151.975,15.279a5.73,5.73,0,1,0-5.73-5.73,5.736,5.736,0,0,0,5.73,5.73" fill="#fff"/>
    <path id="Path_2395" data-name="Path 2395" d="M185.26,35.133a5.729,5.729,0,1,0-5.73-5.73,5.736,5.736,0,0,0,5.73,5.73" fill="#fff"/>
    <path id="Path_2396" data-name="Path 2396" d="M162.931,66.489a5.729,5.729,0,1,0-5.73-5.73,5.736,5.736,0,0,0,5.73,5.73" fill="#fff"/>
    <path id="Path_2397" data-name="Path 2397" d="M187.169,85.4a5.729,5.729,0,1,0,5.73-5.729,5.735,5.735,0,0,0-5.73,5.729" fill="#fff"/>
  </g>
</svg>
