<svg xmlns="http://www.w3.org/2000/svg" xmlns:xlink="http://www.w3.org/1999/xlink" width="592.862" height="592.862" viewBox="0 0 592.862 592.862">
  <defs>
    <clipPath id="clip-path">
      <rect id="Rectangle_787" data-name="Rectangle 787" width="592.862" height="592.862" fill="#fff"/>
    </clipPath>
  </defs>
  <g id="Group_1581" data-name="Group 1581" opacity="0.2">
    <g id="Group_444" data-name="Group 444" transform="translate(0 0)" clip-path="url(#clip-path)">
      <path id="Path_1419" data-name="Path 1419" d="M586.316,135.282,301.286,1.083a11.425,11.425,0,0,0-9.712,0L6.543,135.282A11.4,11.4,0,0,0,0,145.6v79.589A11.4,11.4,0,0,0,16.258,235.5l40.748-19.183v83.693a11.4,11.4,0,0,0,22.8,0V205.582l216.623-101.99,216.623,101.99v94.429a11.4,11.4,0,0,0,22.8,0V216.318L576.6,235.5a11.4,11.4,0,0,0,16.258-10.315V145.6a11.4,11.4,0,0,0-6.542-10.315m-16.258,71.936L301.286,80.675a11.4,11.4,0,0,0-9.712,0L22.8,207.218V152.832L296.429,24,570.058,152.832Z" transform="translate(0 0)" fill="#fff"/>
      <path id="Path_1420" data-name="Path 1420" d="M531.961,124.893a11.4,11.4,0,0,0-15.013,0l-49.5,43.312-49.5-43.312a11.4,11.4,0,0,0-15.013,0l-49.5,43.312-49.5-43.312a11.4,11.4,0,0,0-15.013,0l-49.5,43.312-49.5-43.312a11.4,11.4,0,0,0-15.013,0l-49.5,43.312-49.5-43.312a11.4,11.4,0,0,0-15.016,0L3.892,174.771A11.4,11.4,0,0,0,0,183.352V339.175a11.4,11.4,0,0,0,11.4,11.4H581.46a11.4,11.4,0,0,0,11.4-11.4V183.352a11.4,11.4,0,0,0-3.892-8.581ZM22.8,188.525l45.6-39.9,45.607,39.9V327.773H22.8Zm114.012,0,45.6-39.9,45.6,39.9V327.773H136.813Zm114.012,0,45.6-39.9,45.6,39.9V327.773H250.825Zm114.012,0,45.6-39.9,45.6,39.9V327.773H364.837ZM570.058,327.773H478.85V188.525l45.6-39.9,45.6,39.9Z" transform="translate(0 242.285)" fill="#fff"/>
      <path id="Path_1421" data-name="Path 1421" d="M217.078,206.227a11.4,11.4,0,0,0,11.4-11.4V85.487a11.4,11.4,0,0,0-11.4-11.4H84.722a11.4,11.4,0,0,0-11.4,11.4V194.825a11.4,11.4,0,1,0,22.8,0V96.889H205.677v97.936a11.4,11.4,0,0,0,11.4,11.4" transform="translate(145.529 147.042)" fill="#fff"/>
    </g>
  </g>
</svg>
