<svg id="Group_1787" data-name="Group 1787" xmlns="http://www.w3.org/2000/svg" xmlns:xlink="http://www.w3.org/1999/xlink" width="39.67" height="39.741" viewBox="0 0 39.67 39.741">
  <defs>
    <clipPath id="clip-path">
      <rect id="Rectangle_811" data-name="Rectangle 811" width="39.67" height="39.741" fill="none" stroke="#fa141b" stroke-width="3.5"/>
    </clipPath>
  </defs>
  <g id="Group_453" data-name="Group 453" clip-path="url(#clip-path)">
    <path id="Path_1430" data-name="Path 1430" d="M37.044,28.04v5.437a3.624,3.624,0,0,1-3.61,3.639c-.114,0-.227,0-.341-.014a35.863,35.863,0,0,1-15.64-5.564A35.334,35.334,0,0,1,6.579,20.664,35.863,35.863,0,0,1,1.015,4.951,3.626,3.626,0,0,1,4.3,1.015C4.406,1.006,4.514,1,4.621,1h5.437a3.625,3.625,0,0,1,3.625,3.117A23.258,23.258,0,0,0,14.952,9.21a3.624,3.624,0,0,1-.816,3.824l-2.3,2.3A29,29,0,0,0,22.708,26.21l2.3-2.3a3.624,3.624,0,0,1,3.824-.816,23.258,23.258,0,0,0,5.093,1.269A3.625,3.625,0,0,1,37.044,28.04Z" transform="translate(0.812 0.812)" fill="none" stroke="#fa141b" stroke-linecap="round" stroke-linejoin="round" stroke-width="3.5"/>
  </g>
</svg>
